<?xml version="1.0" encoding="UTF-8"?>
<!--Generator: Apple Native CoreSVG 326-->
<!DOCTYPE svg
PUBLIC "-//W3C//DTD SVG 1.1//EN"
       "http://www.w3.org/Graphics/SVG/1.1/DTD/svg11.dtd">
<svg version="1.1" xmlns="http://www.w3.org/2000/svg" xmlns:xlink="http://www.w3.org/1999/xlink" viewBox="0 0 29.2966 28.7865">
 <g>
  <rect height="28.7865" opacity="0" width="29.2966" x="0" y="0"/>
  <path d="M21.5127 4.07024L19.7783 5.80546L7.48182 5.80546C6.1776 5.80546 5.4751 6.49718 5.4751 7.84452L5.4751 21.7486C5.4751 23.0959 6.1776 23.7876 7.48182 23.7876L21.4398 23.7876C22.744 23.7876 23.4465 23.0959 23.4465 21.7486L23.4465 9.54776L25.1939 7.79759L25.1939 21.8445C25.1939 24.2903 23.9276 25.5242 21.471 25.5242L7.45057 25.5242C4.994 25.5242 3.72775 24.2903 3.72775 21.8445L3.72775 7.74859C3.72775 5.3028 4.994 4.0689 7.45057 4.0689L21.471 4.0689C21.4854 4.0689 21.4997 4.06894 21.5127 4.07024Z" fill="#fed703"/>
  <path d="M12.0892 17.5023L14.3223 16.5103L25.7404 5.09703L24.1921 3.57624L12.7896 14.9836L11.7448 17.1472C11.6499 17.3428 11.872 17.5923 12.0892 17.5023ZM26.6063 4.23593L27.4421 3.38452C27.8398 2.97015 27.8446 2.4253 27.4567 2.03733L27.2146 1.7953C26.8471 1.4278 26.2878 1.46983 25.9154 1.8578L25.064 2.69358Z" fill="#fed703"/>
 </g>
</svg>
