<?xml version="1.0" encoding="UTF-8"?>
<!--Generator: Apple Native CoreSVG 326-->
<!DOCTYPE svg
PUBLIC "-//W3C//DTD SVG 1.1//EN"
       "http://www.w3.org/Graphics/SVG/1.1/DTD/svg11.dtd">
<svg version="1.1" xmlns="http://www.w3.org/2000/svg" xmlns:xlink="http://www.w3.org/1999/xlink" viewBox="0 0 24.7646 24.7694">
 <g>
  <rect height="24.7694" opacity="0" width="24.7646" x="0" y="0"/>
  <path d="M12.3769 24.7537C19.2148 24.7537 24.7645 19.2148 24.7645 12.3769C24.7645 5.53891 19.2148-3.55271e-15 12.3769-3.55271e-15C5.54968-3.55271e-15 4.44089e-16 5.53891 4.44089e-16 12.3769C4.44089e-16 19.2148 5.54968 24.7537 12.3769 24.7537ZM12.3769 22.9309C6.54142 22.9309 1.82874 18.2123 1.82874 12.3769C1.82874 6.5414 6.54142 1.82282 12.3769 1.82282C18.2123 1.82282 22.9309 6.5414 22.9309 12.3769C22.9309 18.2123 18.2123 22.9309 12.3769 22.9309Z" fill="#4e555e"/>
 </g>
</svg>
