<?xml version="1.0" encoding="UTF-8"?>
<!--Generator: Apple Native CoreSVG 326-->
<!DOCTYPE svg
PUBLIC "-//W3C//DTD SVG 1.1//EN"
       "http://www.w3.org/Graphics/SVG/1.1/DTD/svg11.dtd">
<svg version="1.1" xmlns="http://www.w3.org/2000/svg" xmlns:xlink="http://www.w3.org/1999/xlink" viewBox="0 0 24.7645 24.7694">
 <g>
  <rect height="24.7694" opacity="0" width="24.7645" x="0" y="0"/>
  <path d="M12.3769 24.7538C19.2148 24.7538 24.7645 19.2148 24.7645 12.3769C24.7645 5.53891 19.2148 0 12.3769 0C5.54969 0 0 5.53891 0 12.3769C0 19.2148 5.54969 24.7538 12.3769 24.7538ZM12.3769 22.9309C6.54141 22.9309 1.82875 18.2123 1.82875 12.3769C1.82875 6.54141 6.54141 1.82282 12.3769 1.82282C18.2123 1.82282 22.9309 6.54141 22.9309 12.3769C22.9309 18.2123 18.2123 22.9309 12.3769 22.9309Z" fill="#fed801"/>
  <path d="M11.1134 17.8665C11.4758 17.8665 11.7584 17.7244 11.9554 17.4286L17.6995 8.57704C17.8454 8.35769 17.9018 8.15809 17.9018 7.97142C17.9018 7.48108 17.5394 7.12499 17.0347 7.12499C16.687 7.12499 16.4735 7.24686 16.2621 7.58158L11.0883 15.7523L8.45358 12.4591C8.25507 12.2129 8.0413 12.1026 7.73814 12.1026C7.23223 12.1026 6.86262 12.4655 6.86262 12.9625C6.86262 13.1826 6.93497 13.3823 7.12081 13.6013L10.279 17.4567C10.513 17.7397 10.7705 17.8665 11.1134 17.8665Z" fill="#fed801"/>
 </g>
</svg>
